<?xml version="1.0" encoding="UTF-8"?>
<svg xmlns="http://www.w3.org/2000/svg" id="Image" viewBox="0 0 64 64">
  <g fill="none" stroke="#000" stroke-linecap="round" stroke-linejoin="round" stroke-width="2">
    <path d="m41 49a2 2 0 0 1 4 0v6h-4z"></path>
    <path d="m25 49a2 2 0 0 0 -4 0v6h4z"></path>
    <path d="m43 47v-4a2 2 0 0 0 -2-2h-16a2 2 0 0 0 -2 2v4"></path>
    <path d="m43 55v2"></path>
    <path d="m23 55v2"></path>
    <path d="m41 55h-16"></path>
    <path d="m41 50h-16"></path>
    <path d="m13 33h40v29h-40z"></path>
    <path d="m37 16h18v4h-18z"></path>
    <path d="m51 20 3 7"></path>
    <path d="m41 20-3 7"></path>
    <path d="m58 36h4v-29h-29"></path>
    <path d="m16.378 16a.621.621 0 0 1 .622.622v.02a1.969 1.969 0 0 0 1.122 1.777 6.861 6.861 0 0 1 3.878 5.581h-14a6.861 6.861 0 0 1 3.878-5.581 1.97 1.97 0 0 0 1.122-1.777v-.02a.621.621 0 0 1 .622-.622z"></path>
    <path d="m12 24a3.125 3.125 0 1 0 6 0"></path>
    <path d="m15 16v-9"></path>
    <path d="m8 36h-6v-34h26v26"></path>
  </g>
</svg>
